<?xml version="1.0" encoding="UTF-8"?>
<svg width="154px" height="44px" viewBox="0 0 154 44" version="1.1" xmlns="http://www.w3.org/2000/svg" xmlns:xlink="http://www.w3.org/1999/xlink">
    <title>Combined Shape</title>
    <g id="Page-1" stroke="none" stroke-width="1" fill="none" fill-rule="evenodd">
        <g id="Desktop-HD" transform="translate(-95.000000, -58.000000)" fill="#FFFFFF" fill-rule="nonzero">
            <g id="Group-12">
                <path d="M247.454851,97.8677106 C247.61386,97.8677106 247.782806,97.8863362 247.961691,97.9235875 C248.140576,97.9608387 248.308226,98.0288439 248.464642,98.127603 C248.621058,98.2263621 248.749389,98.3671372 248.849633,98.5499282 C248.949878,98.7327192 249,98.9696544 249,99.260734 L249,99.260734 L249,101.911637 L248.242981,101.911637 L248.242981,101.365863 L248.21187,101.365863 L248.153394,101.465777 C248.108841,101.532001 248.05315,101.597456 247.98632,101.66214 C247.886076,101.759166 247.757313,101.839733 247.600033,101.90384 C247.442753,101.967947 247.254362,102 247.034861,102 C246.782521,102 246.554379,101.952786 246.350433,101.858359 C246.146487,101.763931 245.985318,101.626621 245.866926,101.446429 C245.748533,101.266237 245.689337,101.045329 245.689337,100.783704 C245.689337,100.558463 245.732546,100.373073 245.818964,100.227534 C245.905381,100.081994 246.022045,99.966775 246.168955,99.8818768 C246.315866,99.7969786 246.480059,99.7328718 246.661536,99.6895564 C246.843014,99.646241 247.027948,99.6133213 247.216338,99.5907973 C247.454851,99.5630755 247.648427,99.5401183 247.797065,99.5219258 C247.945704,99.5037334 248.053726,99.4738457 248.121132,99.4322629 C248.188538,99.3906802 248.222241,99.3231081 248.222241,99.2295469 L248.222241,99.2295469 L248.222241,99.2113544 L248.214618,99.0813042 C248.194293,98.916082 248.133317,98.7835715 248.031689,98.6837728 C247.904655,98.5590244 247.715833,98.4966503 247.465221,98.4966503 C247.20424,98.4966503 246.998998,98.5542597 246.849495,98.6694787 C246.699992,98.7846977 246.596723,98.9124781 246.539688,99.05282 L246.539688,99.05282 L245.811186,98.8864889 L245.867859,98.7465108 C245.949852,98.567289 246.057563,98.4177296 246.190992,98.2978326 C246.357778,98.1479613 246.550058,98.0388065 246.76783,97.9703681 C246.985603,97.9019298 247.21461,97.8677106 247.454851,97.8677106 Z M106.42188,97.8677106 C106.580888,97.8677106 106.749835,97.8863362 106.92872,97.9235875 C107.107604,97.9608387 107.275255,98.0288439 107.431671,98.127603 C107.588087,98.2263621 107.716417,98.3671372 107.816662,98.5499282 C107.916906,98.7327192 107.967028,98.9696544 107.967028,99.260734 L107.967028,99.260734 L107.967028,101.911637 L107.210009,101.911637 L107.210009,101.365863 L107.178899,101.365863 L107.120423,101.465777 C107.07587,101.532001 107.020178,101.597456 106.953349,101.66214 C106.853104,101.759166 106.724342,101.839733 106.567061,101.90384 C106.409781,101.967947 106.22139,102 106.001889,102 C105.74955,102 105.521407,101.952786 105.317461,101.858359 C105.113515,101.763931 104.952346,101.626621 104.833954,101.446429 C104.715562,101.266237 104.656366,101.045329 104.656366,100.783704 C104.656366,100.558463 104.699574,100.373073 104.785992,100.227534 C104.87241,100.081994 104.989074,99.966775 105.135984,99.8818768 C105.282894,99.7969786 105.447088,99.7328718 105.628565,99.6895564 C105.810042,99.646241 105.994976,99.6133213 106.183367,99.5907973 C106.42188,99.5630755 106.615455,99.5401183 106.764094,99.5219258 C106.912732,99.5037334 107.020754,99.4738457 107.08816,99.4322629 C107.155566,99.3906802 107.189269,99.3231081 107.189269,99.2295469 L107.189269,99.2295469 L107.189269,99.2113544 L107.181647,99.0813042 C107.161321,98.916082 107.100345,98.7835715 106.998718,98.6837728 C106.871684,98.5590244 106.682861,98.4966503 106.43225,98.4966503 C106.171268,98.4966503 105.966026,98.5542597 105.816523,98.6694787 C105.667021,98.7846977 105.563752,98.9124781 105.506716,99.05282 L105.506716,99.05282 L104.778215,98.8864889 L104.834887,98.7465108 C104.91688,98.567289 105.024591,98.4177296 105.15802,98.2978326 C105.324807,98.1479613 105.517086,98.0388065 105.734859,97.9703681 C105.952631,97.9019298 106.181638,97.8677106 106.42188,97.8677106 Z M145.516748,96.5162701 C145.876246,96.5162701 146.193831,96.5795105 146.469504,96.7059915 C146.745176,96.8324725 146.962517,97.0061673 147.121525,97.2270758 C147.280534,97.4479844 147.363495,97.7013795 147.370408,97.9872611 L147.370408,97.9872611 L146.597834,97.9872611 L146.576806,97.8688296 C146.529756,97.6790841 146.422694,97.5275403 146.25562,97.4141984 C146.055131,97.278188 145.802791,97.2101828 145.498601,97.2101828 C145.280828,97.2101828 145.092437,97.244402 144.933429,97.3128403 C144.77442,97.3812786 144.651275,97.4748399 144.563993,97.5935241 C144.476711,97.7122083 144.43307,97.8469192 144.43307,97.9976568 C144.43307,98.1241378 144.462884,98.2332926 144.522512,98.3251213 C144.582141,98.4169499 144.660781,98.4936182 144.758433,98.555126 C144.856085,98.6166339 144.961082,98.6677461 145.073425,98.7084626 C145.185768,98.7491791 145.293791,98.7825319 145.397492,98.8085212 L145.397492,98.8085212 L145.915998,98.9436652 L146.086817,98.9901571 C146.201657,99.0244244 146.318417,99.0652371 146.437097,99.1125953 C146.615117,99.1836325 146.780175,99.2771938 146.932271,99.3932791 C147.084366,99.5093644 147.207511,99.6531715 147.301706,99.8247005 C147.395902,99.9962295 147.442999,100.201544 147.442999,100.440646 C147.442999,100.742121 147.365655,101.00981 147.210968,101.243713 C147.05628,101.477616 146.832458,101.66214 146.539502,101.797284 C146.246546,101.932428 145.892665,102 145.47786,102 C145.080339,102 144.736396,101.93676 144.446033,101.810279 C144.155669,101.683798 143.928391,101.504039 143.764197,101.271002 C143.600003,101.037965 143.509265,100.761179 143.491981,100.440646 L143.491981,100.440646 L144.295666,100.440646 L144.310651,100.552139 C144.338166,100.6956 144.395824,100.818269 144.483624,100.920147 C144.593375,101.047494 144.734236,101.141922 144.906207,101.20343 C145.078178,101.264938 145.267001,101.295692 145.472675,101.295692 C145.69909,101.295692 145.900875,101.25974 146.078031,101.187836 C146.255188,101.115933 146.394752,101.015441 146.496725,100.886361 C146.598698,100.757281 146.649685,100.60611 146.649685,100.432849 C146.649685,100.275181 146.605179,100.146101 146.516169,100.045609 C146.427159,99.9451173 146.307038,99.8619517 146.155807,99.7961123 C146.004576,99.7302729 145.833901,99.6722303 145.643782,99.6219844 L145.643782,99.6219844 L145.01639,99.4504554 L144.811184,99.3878647 C144.481476,99.2759665 144.213281,99.1261674 144.006599,98.9384674 C143.75858,98.7132273 143.63457,98.4152173 143.63457,98.0444375 C143.63457,97.7377644 143.717531,97.4700752 143.883453,97.2413699 C144.049375,97.0126646 144.274061,96.8346383 144.557512,96.707291 C144.840962,96.5799437 145.160707,96.5162701 145.516748,96.5162701 Z M128.020797,97.8677106 C128.179806,97.8677106 128.348753,97.8863362 128.527637,97.9235875 C128.706522,97.9608387 128.874172,98.0288439 129.030588,98.127603 C129.187004,98.2263621 129.315335,98.3671372 129.415579,98.5499282 C129.515824,98.7327192 129.565946,98.9696544 129.565946,99.260734 L129.565946,99.260734 L129.565946,101.911637 L128.808927,101.911637 L128.808927,101.365863 L128.777817,101.365863 L128.719341,101.465777 C128.674787,101.532001 128.619096,101.597456 128.552266,101.66214 C128.452022,101.759166 128.323259,101.839733 128.165979,101.90384 C128.008699,101.967947 127.820308,102 127.600807,102 C127.348467,102 127.120325,101.952786 126.916379,101.858359 C126.712433,101.763931 126.551264,101.626621 126.432872,101.446429 C126.314479,101.266237 126.255283,101.045329 126.255283,100.783704 C126.255283,100.558463 126.298492,100.373073 126.38491,100.227534 C126.471328,100.081994 126.587991,99.966775 126.734902,99.8818768 C126.881812,99.7969786 127.046005,99.7328718 127.227483,99.6895564 C127.40896,99.646241 127.593894,99.6133213 127.782284,99.5907973 C128.020797,99.5630755 128.214373,99.5401183 128.363011,99.5219258 C128.51165,99.5037334 128.619672,99.4738457 128.687078,99.4322629 C128.754484,99.3906802 128.788187,99.3231081 128.788187,99.2295469 L128.788187,99.2295469 L128.788187,99.2113544 L128.780565,99.0813042 C128.760239,98.916082 128.699263,98.7835715 128.597636,98.6837728 C128.470602,98.5590244 128.281779,98.4966503 128.031167,98.4966503 C127.770186,98.4966503 127.564944,98.5542597 127.415441,98.6694787 C127.265939,98.7846977 127.162669,98.9124781 127.105634,99.05282 L127.105634,99.05282 L126.377132,98.8864889 L126.433805,98.7465108 C126.515798,98.567289 126.623509,98.4177296 126.756938,98.2978326 C126.923724,98.1479613 127.116004,98.0388065 127.333776,97.9703681 C127.551549,97.9019298 127.780556,97.8677106 128.020797,97.8677106 Z M138.951737,97.8677106 C139.176423,97.8677106 139.394196,97.9049619 139.605055,97.9794644 C139.815915,98.0539668 140.005169,98.1709184 140.17282,98.3303191 C140.34047,98.4897198 140.472689,98.6963343 140.569477,98.9501625 C140.666265,99.2039908 140.714659,99.5119633 140.714659,99.8740801 L140.714659,99.8740801 L140.714659,100.149566 L137.885368,100.149691 L137.889266,100.2503 C137.904337,100.451007 137.949551,100.626209 138.024907,100.775907 C138.119103,100.963029 138.25089,101.105537 138.420268,101.20343 C138.589647,101.301323 138.787544,101.350269 139.013958,101.350269 C139.160868,101.350269 139.294816,101.329044 139.415801,101.286595 C139.536785,101.244146 139.641351,101.180473 139.729497,101.095574 C139.817643,101.010676 139.885049,100.905853 139.931714,100.781105 L139.931714,100.781105 L140.665401,100.91365 L140.624594,101.040321 C140.562788,101.20485 140.471393,101.351915 140.350408,101.481515 C140.199177,101.643514 140.009922,101.769129 139.782644,101.858359 C139.555365,101.947588 139.296544,101.992203 139.006181,101.992203 C138.613844,101.992203 138.276383,101.907738 137.993797,101.738808 C137.711211,101.569878 137.493438,101.331643 137.340479,101.024104 C137.18752,100.716565 137.11104,100.355747 137.11104,99.9416521 C137.11104,99.5327547 137.18752,99.1723705 137.340479,98.8604996 C137.493438,98.5486287 137.707754,98.3051962 137.983427,98.130202 C138.259099,97.9552077 138.58187,97.8677106 138.951737,97.8677106 Z M239.152314,97.8677106 C239.525638,97.8677106 239.851433,97.9534751 240.129698,98.1250041 C240.407963,98.2965331 240.624007,98.5373667 240.777831,98.847505 C240.931655,99.1576433 241.008566,99.5197601 241.008566,99.9338553 C241.008566,100.346218 240.931655,100.706602 240.777831,101.015008 C240.624007,101.323413 240.407963,101.563381 240.129698,101.73491 C239.851433,101.906439 239.525638,101.992203 239.152314,101.992203 C238.778989,101.992203 238.453194,101.906439 238.174929,101.73491 C237.896664,101.563381 237.68062,101.323413 237.526796,101.015008 C237.372973,100.706602 237.296061,100.346218 237.296061,99.9338553 C237.296061,99.5197601 237.372973,99.1576433 237.526796,98.847505 C237.68062,98.5373667 237.896664,98.2965331 238.174929,98.1250041 C238.453194,97.9534751 238.778989,97.8677106 239.152314,97.8677106 Z M228.17988,97.8677106 C228.553205,97.8677106 228.879,97.9534751 229.157265,98.1250041 C229.43553,98.2965331 229.651574,98.5373667 229.805398,98.847505 C229.959221,99.1576433 230.036133,99.5197601 230.036133,99.9338553 C230.036133,100.346218 229.959221,100.706602 229.805398,101.015008 C229.651574,101.323413 229.43553,101.563381 229.157265,101.73491 C228.879,101.906439 228.553205,101.992203 228.17988,101.992203 C227.806556,101.992203 227.480761,101.906439 227.202496,101.73491 C226.924231,101.563381 226.708187,101.323413 226.554363,101.015008 C226.40054,100.706602 226.323628,100.346218 226.323628,99.9338553 C226.323628,99.5197601 226.40054,99.1576433 226.554363,98.847505 C226.708187,98.5373667 226.924231,98.2965331 227.202496,98.1250041 C227.480761,97.9534751 227.806556,97.8677106 228.17988,97.8677106 Z M115.355955,97.8677106 C115.580642,97.8677106 115.798414,97.9049619 116.009273,97.9794644 C116.220133,98.0539668 116.409387,98.1709184 116.577038,98.3303191 C116.744688,98.4897198 116.876907,98.6963343 116.973695,98.9501625 C117.070483,99.2039908 117.118877,99.5119633 117.118877,99.8740801 L117.118877,99.8740801 L117.118877,100.149566 L114.289016,100.149691 L114.293484,100.2503 C114.308555,100.451007 114.353769,100.626209 114.429125,100.775907 C114.523321,100.963029 114.655108,101.105537 114.824487,101.20343 C114.993865,101.301323 115.191762,101.350269 115.418176,101.350269 C115.565086,101.350269 115.699034,101.329044 115.820019,101.286595 C115.941003,101.244146 116.045569,101.180473 116.133715,101.095574 C116.221861,101.010676 116.289267,100.905853 116.335932,100.781105 L116.335932,100.781105 L117.069619,100.91365 L117.028812,101.040321 C116.967006,101.20485 116.875611,101.351915 116.754626,101.481515 C116.603395,101.643514 116.41414,101.769129 116.186862,101.858359 C115.959583,101.947588 115.700762,101.992203 115.410399,101.992203 C115.018062,101.992203 114.680601,101.907738 114.398015,101.738808 C114.115429,101.569878 113.897656,101.331643 113.744697,101.024104 C113.591738,100.716565 113.515258,100.355747 113.515258,99.9416521 C113.515258,99.5327547 113.591738,99.1723705 113.744697,98.8604996 C113.897656,98.5486287 114.111972,98.3051962 114.387645,98.130202 C114.663317,97.9552077 114.986088,97.8677106 115.355955,97.8677106 Z M172.108676,97.8677106 C172.411138,97.8677106 172.680761,97.9235875 172.917546,98.0353412 C173.15433,98.147095 173.345745,98.3034636 173.491791,98.504447 C173.637837,98.7054305 173.724687,98.9402 173.752341,99.2087555 L173.752341,99.2087555 L172.997914,99.2087555 L172.966648,99.0996007 C172.916457,98.9582192 172.832251,98.8334708 172.714032,98.7253556 C172.566258,98.5902115 172.368793,98.5226395 172.121638,98.5226395 C171.905594,98.5226395 171.716771,98.5793827 171.55517,98.692869 C171.393569,98.8063554 171.267831,98.9674887 171.177957,99.1762689 C171.088082,99.3850492 171.043145,99.6315138 171.043145,99.9156628 C171.043145,100.206742 171.087218,100.457972 171.175364,100.669351 C171.26351,100.88073 171.388384,101.044462 171.549985,101.160548 C171.711586,101.276633 171.902137,101.334675 172.121638,101.334675 C172.268548,101.334675 172.402064,101.307387 172.522184,101.252809 C172.642305,101.198232 172.743414,101.119831 172.825511,101.017607 C172.907608,100.915382 172.965075,100.792367 172.997914,100.648559 L172.997914,100.648559 L173.752341,100.648559 L173.729008,100.800129 C173.68891,100.997786 173.612863,101.1777 173.500865,101.339873 C173.360868,101.542589 173.173774,101.70199 172.939582,101.818075 C172.70539,101.934161 172.431014,101.992203 172.116453,101.992203 C171.73103,101.992203 171.399618,101.904273 171.122217,101.728412 C170.844817,101.552552 170.631797,101.309552 170.483158,100.999414 C170.33452,100.689276 170.260201,100.33409 170.260201,99.9338553 C170.260201,99.5284231 170.336248,99.1702048 170.488343,98.8592002 C170.640439,98.5481956 170.854755,98.3051962 171.131291,98.130202 C171.407828,97.9552077 171.733623,97.8677106 172.108676,97.8677106 Z M102.302757,97.8677106 C102.605219,97.8677106 102.874843,97.9235875 103.111627,98.0353412 C103.348412,98.147095 103.539827,98.3034636 103.685873,98.504447 C103.831919,98.7054305 103.918769,98.9402 103.946422,99.2087555 L103.946422,99.2087555 L103.191996,99.2087555 L103.16073,99.0996007 C103.110538,98.9582192 103.026333,98.8334708 102.908114,98.7253556 C102.760339,98.5902115 102.562875,98.5226395 102.31572,98.5226395 C102.099676,98.5226395 101.910853,98.5793827 101.749252,98.692869 C101.587651,98.8063554 101.461913,98.9674887 101.372039,99.1762689 C101.282164,99.3850492 101.237227,99.6315138 101.237227,99.9156628 C101.237227,100.206742 101.2813,100.457972 101.369446,100.669351 C101.457592,100.88073 101.582466,101.044462 101.744067,101.160548 C101.905668,101.276633 102.096219,101.334675 102.31572,101.334675 C102.46263,101.334675 102.596146,101.307387 102.716266,101.252809 C102.836387,101.198232 102.937496,101.119831 103.019592,101.017607 C103.101689,100.915382 103.159157,100.792367 103.191996,100.648559 L103.191996,100.648559 L103.946422,100.648559 L103.92309,100.800129 C103.882992,100.997786 103.806944,101.1777 103.694947,101.339873 C103.55495,101.542589 103.367856,101.70199 103.133664,101.818075 C102.899472,101.934161 102.625095,101.992203 102.310535,101.992203 C101.925112,101.992203 101.5937,101.904273 101.316299,101.728412 C101.038898,101.552552 100.825879,101.309552 100.67724,100.999414 C100.528602,100.689276 100.454282,100.33409 100.454282,99.9338553 C100.454282,99.5284231 100.53033,99.1702048 100.682425,98.8592002 C100.83452,98.5481956 101.048836,98.3051962 101.325373,98.130202 C101.60191,97.9552077 101.927704,97.8677106 102.302757,97.8677106 Z M176.326314,97.8677106 C176.699639,97.8677106 177.025433,97.9534751 177.303699,98.1250041 C177.581964,98.2965331 177.798008,98.5373667 177.951831,98.847505 C178.105655,99.1576433 178.182567,99.5197601 178.182567,99.9338553 C178.182567,100.346218 178.105655,100.706602 177.951831,101.015008 C177.798008,101.323413 177.581964,101.563381 177.303699,101.73491 C177.025433,101.906439 176.699639,101.992203 176.326314,101.992203 C175.95299,101.992203 175.627195,101.906439 175.34893,101.73491 C175.070665,101.563381 174.85462,101.323413 174.700797,101.015008 C174.546973,100.706602 174.470061,100.346218 174.470061,99.9338553 C174.470061,99.5197601 174.546973,99.1576433 174.700797,98.847505 C174.85462,98.5373667 175.070665,98.2965331 175.34893,98.1250041 C175.627195,97.9534751 175.95299,97.8677106 176.326314,97.8677106 Z M202.262649,97.8677106 C202.487335,97.8677106 202.705108,97.9049619 202.915967,97.9794644 C203.126826,98.0539668 203.316081,98.1709184 203.483731,98.3303191 C203.651382,98.4897198 203.783601,98.6963343 203.880389,98.9501625 C203.977176,99.2039908 204.02557,99.5119633 204.02557,99.8740801 L204.02557,99.8740801 L204.02557,100.149566 L201.196,100.149 L201.200178,100.2503 C201.211481,100.40083 201.23974,100.537014 201.284953,100.658851 L201.335819,100.775907 C201.430014,100.963029 201.561801,101.105537 201.73118,101.20343 C201.900559,101.301323 202.098455,101.350269 202.32487,101.350269 C202.47178,101.350269 202.605727,101.329044 202.726712,101.286595 C202.847697,101.244146 202.952262,101.180473 203.040408,101.095574 C203.128554,101.010676 203.19596,100.905853 203.242626,100.781105 L203.242626,100.781105 L203.976312,100.91365 L203.935506,101.040321 C203.8737,101.20485 203.782304,101.351915 203.66132,101.481515 C203.510089,101.643514 203.320834,101.769129 203.093555,101.858359 C202.866277,101.947588 202.607456,101.992203 202.317092,101.992203 C201.924756,101.992203 201.587294,101.907738 201.304708,101.738808 C201.022123,101.569878 200.80435,101.331643 200.65139,101.024104 C200.498431,100.716565 200.421951,100.355747 200.421951,99.9416521 C200.421951,99.5327547 200.498431,99.1723705 200.65139,98.8604996 C200.80435,98.5486287 201.018666,98.3051962 201.294338,98.130202 C201.570011,97.9552077 201.892781,97.8677106 202.262649,97.8677106 Z M185.212691,97.8677106 C185.586015,97.8677106 185.91181,97.9534751 186.190075,98.1250041 C186.46834,98.2965331 186.684385,98.5373667 186.838208,98.847505 C186.992032,99.1576433 187.068943,99.5197601 187.068943,99.9338553 C187.068943,100.346218 186.992032,100.706602 186.838208,101.015008 C186.684385,101.323413 186.46834,101.563381 186.190075,101.73491 C185.91181,101.906439 185.586015,101.992203 185.212691,101.992203 C184.839366,101.992203 184.513571,101.906439 184.235306,101.73491 C183.957041,101.563381 183.740997,101.323413 183.587174,101.015008 C183.43335,100.706602 183.356438,100.346218 183.356438,99.9338553 C183.356438,99.5197601 183.43335,99.1576433 183.587174,98.847505 C183.740997,98.5373667 183.957041,98.2965331 184.235306,98.1250041 C184.513571,97.9534751 184.839366,97.8677106 185.212691,97.8677106 Z M198.060566,97.8677106 C198.363028,97.8677106 198.632651,97.9235875 198.869436,98.0353412 C199.10622,98.147095 199.297635,98.3034636 199.443681,98.504447 C199.589727,98.7054305 199.676577,98.9402 199.704231,99.2087555 L199.704231,99.2087555 L198.949804,99.2087555 L198.918538,99.0996007 C198.868347,98.9582192 198.784141,98.8334708 198.665922,98.7253556 C198.518147,98.5902115 198.320683,98.5226395 198.073528,98.5226395 C197.857484,98.5226395 197.668661,98.5793827 197.50706,98.692869 C197.345459,98.8063554 197.219721,98.9674887 197.129847,99.1762689 C197.039972,99.3850492 196.995035,99.6315138 196.995035,99.9156628 C196.995035,100.206742 197.039108,100.457972 197.127254,100.669351 C197.2154,100.88073 197.340274,101.044462 197.501875,101.160548 C197.663476,101.276633 197.854027,101.334675 198.073528,101.334675 C198.220438,101.334675 198.353954,101.307387 198.474074,101.252809 C198.594195,101.198232 198.695304,101.119831 198.777401,101.017607 C198.859497,100.915382 198.916965,100.792367 198.949804,100.648559 L198.949804,100.648559 L199.704231,100.648559 L199.680898,100.800129 C199.6408,100.997786 199.564752,101.1777 199.452755,101.339873 C199.312758,101.542589 199.125664,101.70199 198.891472,101.818075 C198.65728,101.934161 198.382904,101.992203 198.068343,101.992203 C197.68292,101.992203 197.351508,101.904273 197.074107,101.728412 C196.796706,101.552552 196.583687,101.309552 196.435048,100.999414 C196.28641,100.689276 196.212091,100.33409 196.212091,99.9338553 C196.212091,99.5284231 196.288138,99.1702048 196.440233,98.8592002 C196.592329,98.5481956 196.806645,98.3051962 197.083181,98.130202 C197.359718,97.9552077 197.685513,97.8677106 198.060566,97.8677106 Z M136.122661,96.5890399 L136.122661,101.911637 L135.365642,101.911637 L135.365642,101.290494 L135.300829,101.290494 L135.247394,101.379435 C135.207257,101.441424 135.158095,101.508803 135.099907,101.581573 C135.012625,101.690728 134.892937,101.786022 134.740842,101.867455 C134.588747,101.948888 134.391714,101.989604 134.149744,101.989604 C133.828271,101.989604 133.541796,101.906872 133.29032,101.741407 C133.038845,101.575942 132.841812,101.33944 132.699223,101.031901 C132.556634,100.724361 132.485339,100.354881 132.485339,99.9234596 C132.485339,99.4920382 132.557498,99.122991 132.701816,98.8163179 C132.846133,98.5096449 133.044462,98.2748754 133.296802,98.1120095 C133.549141,97.9491436 133.835184,97.8677106 134.15493,97.8677106 C134.402084,97.8677106 134.601277,97.9088602 134.752508,97.9911595 C134.903739,98.0734588 135.021267,98.1691858 135.105092,98.2783406 C135.188918,98.3874954 135.254163,98.4836556 135.300829,98.5668212 L135.300829,98.5668212 L135.347494,98.5668212 L135.347494,96.5890399 L136.122661,96.5890399 Z M159.048531,96.5890399 L159.048531,101.911637 L158.291512,101.911637 L158.291512,101.290494 L158.226699,101.290494 L158.173264,101.379435 C158.133127,101.441424 158.083965,101.508803 158.025777,101.581573 C157.938496,101.690728 157.818807,101.786022 157.666712,101.867455 C157.514617,101.948888 157.317584,101.989604 157.075615,101.989604 C156.754141,101.989604 156.467666,101.906872 156.21619,101.741407 C155.964715,101.575942 155.767682,101.33944 155.625093,101.031901 C155.482504,100.724361 155.411209,100.354881 155.411209,99.9234596 C155.411209,99.4920382 155.483368,99.122991 155.627686,98.8163179 C155.772003,98.5096449 155.970332,98.2748754 156.222672,98.1120095 C156.475011,97.9491436 156.761054,97.8677106 157.0808,97.8677106 C157.327954,97.8677106 157.527147,97.9088602 157.678378,97.9911595 C157.829609,98.0734588 157.947137,98.1691858 158.030962,98.2783406 C158.114788,98.3874954 158.180033,98.4836556 158.226699,98.5668212 L158.226699,98.5668212 L158.273364,98.5668212 L158.273364,96.5890399 L159.048531,96.5890399 Z M112.526879,96.5890399 L112.526879,101.911637 L111.76986,101.911637 L111.76986,101.290494 L111.705047,101.290494 L111.651612,101.379435 C111.611475,101.441424 111.562313,101.508803 111.504125,101.581573 C111.416844,101.690728 111.297155,101.786022 111.14506,101.867455 C110.992965,101.948888 110.795932,101.989604 110.553963,101.989604 C110.232489,101.989604 109.946014,101.906872 109.694538,101.741407 C109.443063,101.575942 109.24603,101.33944 109.103441,101.031901 C108.960852,100.724361 108.889557,100.354881 108.889557,99.9234596 C108.889557,99.4920382 108.961716,99.122991 109.106034,98.8163179 C109.250351,98.5096449 109.44868,98.2748754 109.70102,98.1120095 C109.953359,97.9491436 110.239402,97.8677106 110.559148,97.8677106 C110.806302,97.8677106 111.005495,97.9088602 111.156726,97.9911595 C111.307957,98.0734588 111.425485,98.1691858 111.50931,98.2783406 C111.593136,98.3874954 111.658381,98.4836556 111.705047,98.5668212 L111.705047,98.5668212 L111.751712,98.5668212 L111.751712,96.5890399 L112.526879,96.5890399 Z M210.414289,96.5890399 L210.414289,101.911637 L209.65727,101.911637 L209.65727,101.290494 L209.592457,101.290494 L209.539022,101.379435 C209.498885,101.441424 209.449723,101.508803 209.391535,101.581573 C209.304253,101.690728 209.184565,101.786022 209.03247,101.867455 C208.880375,101.948888 208.683342,101.989604 208.441373,101.989604 C208.119899,101.989604 207.833424,101.906872 207.581948,101.741407 C207.330473,101.575942 207.13344,101.33944 206.990851,101.031901 C206.848262,100.724361 206.776967,100.354881 206.776967,99.9234596 C206.776967,99.4920382 206.849126,99.122991 206.993444,98.8163179 C207.137761,98.5096449 207.33609,98.2748754 207.58843,98.1120095 C207.840769,97.9491436 208.126812,97.8677106 208.446558,97.8677106 C208.693712,97.8677106 208.892905,97.9088602 209.044136,97.9911595 C209.195367,98.0734588 209.312895,98.1691858 209.39672,98.2783406 C209.480546,98.3874954 209.545791,98.4836556 209.592457,98.5668212 L209.592457,98.5668212 L209.639122,98.5668212 L209.639122,96.5890399 L210.414289,96.5890399 Z M236.307682,96.5890399 L236.307682,101.911637 L235.550663,101.911637 L235.550663,101.290494 L235.48585,101.290494 L235.432415,101.379435 C235.392278,101.441424 235.343116,101.508803 235.284928,101.581573 C235.197647,101.690728 235.077958,101.786022 234.925863,101.867455 C234.773768,101.948888 234.576735,101.989604 234.334766,101.989604 C234.013292,101.989604 233.726817,101.906872 233.475341,101.741407 C233.223866,101.575942 233.026833,101.33944 232.884244,101.031901 C232.741655,100.724361 232.67036,100.354881 232.67036,99.9234596 C232.67036,99.4920382 232.742519,99.122991 232.886837,98.8163179 C233.031154,98.5096449 233.229483,98.2748754 233.481823,98.1120095 C233.734162,97.9491436 234.020205,97.8677106 234.339951,97.8677106 C234.587105,97.8677106 234.786298,97.9088602 234.937529,97.9911595 C235.08876,98.0734588 235.206288,98.1691858 235.290114,98.2783406 C235.373939,98.3874954 235.439184,98.4836556 235.48585,98.5668212 L235.48585,98.5668212 L235.532515,98.5668212 L235.532515,96.5890399 L236.307682,96.5890399 Z M149.443503,96.963285 L149.443081,97.9202713 L150.26015,97.9196891 L150.26015,98.5434309 L149.443081,98.5441794 L149.443503,100.739522 L149.447716,100.845509 C149.456141,100.944431 149.477206,101.022155 149.510909,101.078681 C149.555846,101.15405 149.614178,101.205162 149.685905,101.232018 C149.757631,101.258873 149.835839,101.272301 149.920529,101.272301 C149.982749,101.272301 150.037193,101.26797 150.083858,101.259307 C150.130524,101.250644 150.166819,101.243713 150.192745,101.238515 L150.192745,101.238515 L150.332741,101.880449 L150.281467,101.89792 C150.243059,101.909663 150.196201,101.921599 150.140894,101.933727 C150.057933,101.95192 149.954232,101.961882 149.82979,101.963615 C149.625844,101.96708 149.435725,101.930695 149.259433,101.85446 C149.083141,101.778225 148.940552,101.660407 148.831665,101.501007 L148.831665,101.501007 L148.772867,101.40048 C148.70318,101.25993 148.668336,101.093322 148.668336,100.900655 L148.668336,100.900655 L148.668308,98.5441794 L148.085016,98.5434309 L148.085016,97.9196891 L148.668308,97.9202713 L148.668336,96.963285 L149.443503,96.963285 Z M151.955255,97.9196891 L151.955255,100.365277 L151.96152,100.496667 C151.982404,100.70795 152.055499,100.88073 152.180805,101.015008 C152.331172,101.176141 152.526476,101.256708 152.766717,101.256708 C152.911899,101.256708 153.056649,101.220323 153.200966,101.147553 C153.345284,101.074783 153.465405,100.964762 153.561328,100.81749 C153.657252,100.670217 153.70435,100.483095 153.702621,100.256122 L153.702621,100.256122 L153.702621,97.9196891 L154.480381,97.9196891 L154.480381,101.911637 L153.718176,101.911637 L153.718176,101.220323 L153.676696,101.220323 L153.615149,101.343876 C153.524307,101.50286 153.398344,101.638836 153.237262,101.751803 C153.035908,101.893011 152.785729,101.963615 152.486724,101.963615 C152.230927,101.963615 152.004945,101.906872 151.808777,101.793386 C151.612609,101.679899 151.458785,101.511402 151.347306,101.287895 C151.235827,101.064387 151.180088,100.788035 151.180088,100.458838 L151.180088,100.458838 L151.180088,97.9196891 L151.955255,97.9196891 Z M98.0177068,96.5890399 L99.9284026,101.911637 L99.0780522,101.911637 L98.59188,100.503727 L96.5176058,100.503727 L96.0318276,101.911637 L95.1814772,101.911637 L97.092173,96.5890399 L98.0177068,96.5890399 Z M215.430015,97.8677106 C215.701367,97.8677106 215.939016,97.9244538 216.142962,98.0379401 C216.346908,98.1514265 216.505052,98.3199234 216.617395,98.5434309 C216.729738,98.7669384 216.78591,99.0432906 216.78591,99.3724877 L216.78591,99.3724877 L216.78591,101.911637 L216.010743,101.911637 L216.010743,99.466049 L216.004477,99.3266095 C215.983593,99.1029335 215.910498,98.9228738 215.785192,98.7864303 C215.634825,98.6226981 215.428287,98.540832 215.165577,98.540832 C214.985828,98.540832 214.826388,98.5798158 214.687255,98.6577836 C214.548123,98.7357513 214.438372,98.8496708 214.358004,98.9995421 C214.277635,99.1494134 214.237451,99.3300386 214.237451,99.5414178 L214.237451,99.5414178 L214.237451,101.911637 L213.462284,101.911637 L213.462284,97.9196891 L214.206341,97.9196891 L214.206341,98.5694201 L214.255599,98.5694201 L214.316834,98.4475826 C214.406847,98.2917857 214.530321,98.1626019 214.687255,98.060031 C214.883423,97.9318174 215.13101,97.8677106 215.430015,97.8677106 Z M181.077494,97.8677106 C181.348845,97.8677106 181.586494,97.9244538 181.79044,98.0379401 C181.994386,98.1514265 182.15253,98.3199234 182.264873,98.5434309 C182.377216,98.7669384 182.433388,99.0432906 182.433388,99.3724877 L182.433388,99.3724877 L182.433388,101.911637 L181.658221,101.911637 L181.658221,99.466049 L181.651956,99.3266095 C181.631071,99.1029335 181.557976,98.9228738 181.432671,98.7864303 C181.282304,98.6226981 181.075765,98.540832 180.813056,98.540832 C180.633307,98.540832 180.473866,98.5798158 180.334733,98.6577836 C180.195601,98.7357513 180.08585,98.8496708 180.005482,98.9995421 C179.925113,99.1494134 179.884929,99.3300386 179.884929,99.5414178 L179.884929,99.5414178 L179.884929,101.911637 L179.109762,101.911637 L179.109762,97.9196891 L179.853819,97.9196891 L179.853819,98.5694201 L179.903077,98.5694201 L179.964313,98.4475826 C180.054325,98.2917857 180.177799,98.1626019 180.334733,98.060031 C180.530902,97.9318174 180.778488,97.8677106 181.077494,97.8677106 Z M169.365153,96.5890399 L169.365153,97.2803538 L166.837435,97.2803538 L166.837435,98.9020824 L169.191453,98.9020824 L169.191453,99.5907973 L166.837435,99.5907973 L166.837435,101.220323 L169.396263,101.220323 L169.396263,101.911637 L166.036342,101.911637 L166.036342,96.5890399 L169.365153,96.5890399 Z M192.180485,97.8677106 C192.541711,97.8677106 192.836828,97.981197 193.065835,98.2081697 C193.294842,98.4351424 193.409345,98.7773341 193.409345,99.2347447 L193.409345,99.2347447 L193.409345,101.911637 L192.634178,101.911637 L192.634178,99.3075146 L192.628057,99.1785791 C192.607653,98.9740341 192.536238,98.821227 192.413813,98.7201577 C192.266903,98.5988746 192.091475,98.538233 191.887529,98.538233 C191.635189,98.538233 191.439021,98.6157676 191.299024,98.7708368 C191.159028,98.9259059 191.089029,99.1247236 191.089029,99.3672898 L191.089029,99.3672898 L191.089029,101.911637 L190.316455,101.911637 L190.316455,99.258135 L190.308366,99.1332827 C190.286796,98.9736048 190.222087,98.8410943 190.114237,98.7357513 C189.979426,98.6040725 189.803998,98.538233 189.587953,98.538233 C189.441043,98.538233 189.3058,98.5767838 189.182222,98.6538852 C189.058645,98.7309866 188.959265,98.8379756 188.884081,98.9748523 C188.808898,99.111729 188.771306,99.2702633 188.771306,99.4504554 L188.771306,99.4504554 L188.771306,101.911637 L187.996139,101.911637 L187.996139,97.9196891 L188.740196,97.9196891 L188.740196,98.5694201 L188.789454,98.5694201 L188.845556,98.4431644 C188.928794,98.2825162 189.045769,98.1526393 189.196481,98.0535337 C189.384872,97.9296516 189.610422,97.8677106 189.873132,97.8677106 C190.139298,97.8677106 190.362688,97.9300848 190.543301,98.0548332 C190.723914,98.1795815 190.85743,98.3511105 190.943847,98.5694201 L190.943847,98.5694201 L190.985328,98.5694201 L191.049104,98.4466989 C191.143127,98.2899318 191.273099,98.1606094 191.439021,98.0587315 C191.646424,97.9313843 191.893578,97.8677106 192.180485,97.8677106 Z M195.285411,97.9196891 L195.285411,101.911637 L194.510244,101.911637 L194.510244,97.9196891 L195.285411,97.9196891 Z M212.35672,97.9196891 L212.35672,101.911637 L211.581553,101.911637 L211.581553,97.9196891 L212.35672,97.9196891 Z M160.990962,97.9196891 L160.990962,101.911637 L160.215795,101.911637 L160.215795,97.9196891 L160.990962,97.9196891 Z M220.919129,96.5890399 L222.60946,100.726527 L222.67168,100.726527 L224.362011,96.5890399 L225.33421,96.5890399 L225.33421,101.911637 L224.572006,101.911637 L224.572006,98.060031 L224.522748,98.060031 L222.956859,101.90384 L222.324281,101.90384 L220.758392,98.0574321 L220.709134,98.0574321 L220.709134,101.911637 L219.94693,101.911637 L219.94693,96.5890399 L220.919129,96.5890399 Z M231.738496,96.5890399 L231.738496,101.911637 L230.963329,101.911637 L230.963329,96.5890399 L231.738496,96.5890399 Z M242.314271,97.9196891 L243.322766,100.991617 L243.364247,100.991617 L244.370149,97.9196891 L245.202352,97.9196891 L243.758312,101.911637 L242.928701,101.911637 L241.482069,97.9196891 L242.314271,97.9196891 Z M125.336381,97.9196891 L125.336381,101.911637 L124.561214,101.911637 L124.561214,97.9196891 L125.336381,97.9196891 Z M122.231455,97.8677106 C122.592681,97.8677106 122.887798,97.981197 123.116805,98.2081697 C123.345812,98.4351424 123.460315,98.7773341 123.460315,99.2347447 L123.460315,99.2347447 L123.460315,101.911637 L122.685148,101.911637 L122.685148,99.3075146 L122.679027,99.1785791 C122.658623,98.9740341 122.587208,98.821227 122.464783,98.7201577 C122.317873,98.5988746 122.142445,98.538233 121.938499,98.538233 C121.686159,98.538233 121.489991,98.6157676 121.349995,98.7708368 C121.209998,98.9259059 121.139999,99.1247236 121.139999,99.3672898 L121.139999,99.3672898 L121.139999,101.911637 L120.367425,101.911637 L120.367425,99.258135 L120.359336,99.1332827 C120.337766,98.9736048 120.273057,98.8410943 120.165208,98.7357513 C120.030396,98.6040725 119.854968,98.538233 119.638924,98.538233 C119.492014,98.538233 119.35677,98.5767838 119.233192,98.6538852 C119.109615,98.7309866 119.010235,98.8379756 118.935051,98.9748523 C118.859868,99.111729 118.822276,99.2702633 118.822276,99.4504554 L118.822276,99.4504554 L118.822276,101.911637 L118.047109,101.911637 L118.047109,97.9196891 L118.791166,97.9196891 L118.791166,98.5694201 L118.840424,98.5694201 L118.896526,98.4431644 C118.979764,98.2825162 119.096739,98.1526393 119.247451,98.0535337 C119.435842,97.9296516 119.661392,97.8677106 119.924102,97.8677106 C120.190269,97.8677106 120.413659,97.9300848 120.594272,98.0548332 C120.774885,98.1795815 120.9084,98.3511105 120.994818,98.5694201 L120.994818,98.5694201 L121.036298,98.5694201 L121.100074,98.4466989 C121.194097,98.2899318 121.324069,98.1606094 121.489991,98.0587315 C121.697394,97.9313843 121.944548,97.8677106 122.231455,97.8677106 Z M162.871693,97.9196891 L162.871693,101.911637 L162.096526,101.911637 L162.096526,97.9196891 L162.871693,97.9196891 Z M128.790779,99.9572456 L128.754628,99.9842456 C128.724862,100.001764 128.683765,100.01832 128.631338,100.033914 C128.552698,100.057304 128.463256,100.077229 128.363011,100.093689 C128.262767,100.110149 128.165115,100.124876 128.070055,100.137871 C127.974996,100.150865 127.895492,100.161694 127.831542,100.170357 C127.681176,100.189416 127.544204,100.22147 127.420626,100.266518 C127.297049,100.311566 127.198533,100.376106 127.125078,100.460137 C127.051623,100.544169 127.014895,100.65549 127.014895,100.794099 C127.014895,100.98642 127.085758,101.131526 127.227483,101.229419 C127.369208,101.327312 127.549821,101.376258 127.769322,101.376258 C127.983638,101.376258 128.167275,101.333809 128.320235,101.248911 C128.473194,101.164013 128.589858,101.052692 128.670226,100.914949 C128.750595,100.777206 128.790779,100.629501 128.790779,100.471833 L128.790779,100.471833 L128.790779,99.9572456 Z M107.191861,99.9572456 L107.15571,99.9842456 C107.125944,100.001764 107.084848,100.01832 107.032421,100.033914 C106.953781,100.057304 106.864338,100.077229 106.764094,100.093689 C106.663849,100.110149 106.566197,100.124876 106.471138,100.137871 C106.376078,100.150865 106.296574,100.161694 106.232625,100.170357 C106.082258,100.189416 105.945286,100.22147 105.821709,100.266518 C105.698131,100.311566 105.599615,100.376106 105.52616,100.460137 C105.452705,100.544169 105.415977,100.65549 105.415977,100.794099 C105.415977,100.98642 105.48684,101.131526 105.628565,101.229419 C105.77029,101.327312 105.950903,101.376258 106.170404,101.376258 C106.38472,101.376258 106.568358,101.333809 106.721317,101.248911 C106.874276,101.164013 106.99094,101.052692 107.071309,100.914949 C107.151677,100.777206 107.191861,100.629501 107.191861,100.471833 L107.191861,100.471833 L107.191861,99.9572456 Z M248.224833,99.9572456 L248.188682,99.9842456 C248.158916,100.001764 248.117819,100.01832 248.065392,100.033914 C247.986752,100.057304 247.89731,100.077229 247.797065,100.093689 C247.696821,100.110149 247.599169,100.124876 247.504109,100.137871 C247.40905,100.150865 247.329545,100.161694 247.265596,100.170357 C247.11523,100.189416 246.978257,100.22147 246.85468,100.266518 C246.731103,100.311566 246.632587,100.376106 246.559131,100.460137 C246.485676,100.544169 246.448949,100.65549 246.448949,100.794099 C246.448949,100.98642 246.519811,101.131526 246.661536,101.229419 C246.803262,101.327312 246.983875,101.376258 247.203376,101.376258 C247.417692,101.376258 247.601329,101.333809 247.754289,101.248911 C247.907248,101.164013 248.023912,101.052692 248.10428,100.914949 C248.184649,100.777206 248.224833,100.629501 248.224833,100.471833 L248.224833,100.471833 L248.224833,99.9572456 Z M176.328907,98.5174416 C176.085209,98.5174416 175.883423,98.5824148 175.723551,98.712361 C175.563678,98.8423072 175.445285,99.0142693 175.368374,99.2282474 C175.291462,99.4422255 175.253006,99.6765618 175.253006,99.9312564 C175.253006,100.187684 175.291462,100.422453 175.368374,100.635565 C175.445285,100.848677 175.563678,101.019339 175.723551,101.147553 C175.883423,101.275766 176.085209,101.339873 176.328907,101.339873 C176.570876,101.339873 176.771365,101.275766 176.930374,101.147553 C177.089383,101.019339 177.207343,100.848677 177.284255,100.635565 C177.361166,100.422453 177.399622,100.187684 177.399622,99.9312564 C177.399622,99.6765618 177.361166,99.4422255 177.284255,99.2282474 C177.207343,99.0142693 177.089383,98.8423072 176.930374,98.712361 C176.771365,98.5824148 176.570876,98.5174416 176.328907,98.5174416 Z M228.182473,98.5174416 C227.938775,98.5174416 227.73699,98.5824148 227.577117,98.712361 C227.417244,98.8423072 227.298852,99.0142693 227.22194,99.2282474 C227.145028,99.4422255 227.106572,99.6765618 227.106572,99.9312564 C227.106572,100.187684 227.145028,100.422453 227.22194,100.635565 C227.298852,100.848677 227.417244,101.019339 227.577117,101.147553 C227.73699,101.275766 227.938775,101.339873 228.182473,101.339873 C228.424443,101.339873 228.624932,101.275766 228.78394,101.147553 C228.942949,101.019339 229.060909,100.848677 229.137821,100.635565 C229.214733,100.422453 229.253189,100.187684 229.253189,99.9312564 C229.253189,99.6765618 229.214733,99.4422255 229.137821,99.2282474 C229.060909,99.0142693 228.942949,98.8423072 228.78394,98.712361 C228.624932,98.5824148 228.424443,98.5174416 228.182473,98.5174416 Z M239.154906,98.5174416 C238.911208,98.5174416 238.709423,98.5824148 238.54955,98.712361 C238.389677,98.8423072 238.271285,99.0142693 238.194373,99.2282474 C238.117461,99.4422255 238.079006,99.6765618 238.079006,99.9312564 C238.079006,100.187684 238.117461,100.422453 238.194373,100.635565 C238.271285,100.848677 238.389677,101.019339 238.54955,101.147553 C238.709423,101.275766 238.911208,101.339873 239.154906,101.339873 C239.396876,101.339873 239.597365,101.275766 239.756374,101.147553 C239.915382,101.019339 240.033342,100.848677 240.110254,100.635565 C240.187166,100.422453 240.225622,100.187684 240.225622,99.9312564 C240.225622,99.6765618 240.187166,99.4422255 240.110254,99.2282474 C240.033342,99.0142693 239.915382,98.8423072 239.756374,98.712361 C239.597365,98.5824148 239.396876,98.5174416 239.154906,98.5174416 Z M185.215283,98.5174416 C184.971585,98.5174416 184.7698,98.5824148 184.609927,98.712361 C184.450054,98.8423072 184.331662,99.0142693 184.25475,99.2282474 C184.177839,99.4422255 184.139383,99.6765618 184.139383,99.9312564 C184.139383,100.187684 184.177839,100.422453 184.25475,100.635565 C184.331662,100.848677 184.450054,101.019339 184.609927,101.147553 C184.7698,101.275766 184.971585,101.339873 185.215283,101.339873 C185.457253,101.339873 185.657742,101.275766 185.816751,101.147553 C185.975759,101.019339 186.09372,100.848677 186.170631,100.635565 C186.247543,100.422453 186.285999,100.187684 186.285999,99.9312564 C186.285999,99.6765618 186.247543,99.4422255 186.170631,99.2282474 C186.09372,99.0142693 185.975759,98.8423072 185.816751,98.712361 C185.657742,98.5824148 185.457253,98.5174416 185.215283,98.5174416 Z M134.320852,98.5278373 C134.087524,98.5278373 133.893084,98.5884789 133.737532,98.709762 C133.58198,98.8310452 133.464884,98.99651 133.386244,99.2061565 C133.307604,99.4158031 133.268284,99.6523052 133.268284,99.9156628 C133.268284,100.182486 133.308036,100.422453 133.38754,100.635565 C133.467044,100.848677 133.585005,101.017174 133.741421,101.141056 C133.897837,101.264938 134.09098,101.326879 134.320852,101.326879 C134.543809,101.326879 134.732632,101.267537 134.88732,101.148852 C135.042007,101.030168 135.159536,100.865136 135.239904,100.653757 C135.320273,100.442378 135.360457,100.196347 135.360457,99.9156628 C135.360457,99.6384443 135.320705,99.395878 135.2412,99.1879641 C135.161696,98.9800501 135.045032,98.8180505 134.891209,98.7019653 C134.737385,98.58588 134.547266,98.5278373 134.320852,98.5278373 Z M234.505873,98.5278373 C234.272545,98.5278373 234.078105,98.5884789 233.922553,98.709762 C233.767001,98.8310452 233.649905,98.99651 233.571265,99.2061565 C233.492625,99.4158031 233.453305,99.6523052 233.453305,99.9156628 C233.453305,100.182486 233.493057,100.422453 233.572561,100.635565 C233.652066,100.848677 233.770026,101.017174 233.926442,101.141056 C234.082858,101.264938 234.276002,101.326879 234.505873,101.326879 C234.72883,101.326879 234.917653,101.267537 235.072341,101.148852 C235.227029,101.030168 235.344557,100.865136 235.424925,100.653757 C235.505294,100.442378 235.545478,100.196347 235.545478,99.9156628 C235.545478,99.6384443 235.505726,99.395878 235.426221,99.1879641 C235.346717,98.9800501 235.230053,98.8180505 235.07623,98.7019653 C234.922406,98.58588 234.732287,98.5278373 234.505873,98.5278373 Z M110.72507,98.5278373 C110.491742,98.5278373 110.297302,98.5884789 110.14175,98.709762 C109.986198,98.8310452 109.869102,98.99651 109.790462,99.2061565 C109.711822,99.4158031 109.672502,99.6523052 109.672502,99.9156628 C109.672502,100.182486 109.712254,100.422453 109.791758,100.635565 C109.871263,100.848677 109.989223,101.017174 110.145639,101.141056 C110.302055,101.264938 110.495199,101.326879 110.72507,101.326879 C110.948027,101.326879 111.13685,101.267537 111.291538,101.148852 C111.446226,101.030168 111.563754,100.865136 111.644122,100.653757 C111.724491,100.442378 111.764675,100.196347 111.764675,99.9156628 C111.764675,99.6384443 111.724923,99.395878 111.645418,99.1879641 C111.565914,98.9800501 111.44925,98.8180505 111.295427,98.7019653 C111.141603,98.58588 110.951484,98.5278373 110.72507,98.5278373 Z M157.246722,98.5278373 C157.013394,98.5278373 156.818954,98.5884789 156.663402,98.709762 C156.50785,98.8310452 156.390754,98.99651 156.312114,99.2061565 C156.233474,99.4158031 156.194154,99.6523052 156.194154,99.9156628 C156.194154,100.182486 156.233906,100.422453 156.31341,100.635565 C156.392915,100.848677 156.510875,101.017174 156.667291,101.141056 C156.823707,101.264938 157.016851,101.326879 157.246722,101.326879 C157.469679,101.326879 157.658502,101.267537 157.81319,101.148852 C157.967878,101.030168 158.085406,100.865136 158.165774,100.653757 C158.246143,100.442378 158.286327,100.196347 158.286327,99.9156628 C158.286327,99.6384443 158.246575,99.395878 158.16707,99.1879641 C158.087566,98.9800501 157.970902,98.8180505 157.817079,98.7019653 C157.663255,98.58588 157.473136,98.5278373 157.246722,98.5278373 Z M208.61248,98.5278373 C208.379152,98.5278373 208.184712,98.5884789 208.02916,98.709762 C207.873608,98.8310452 207.756512,98.99651 207.677872,99.2061565 C207.599232,99.4158031 207.559912,99.6523052 207.559912,99.9156628 C207.559912,100.182486 207.599664,100.422453 207.679168,100.635565 C207.758673,100.848677 207.876633,101.017174 208.033049,101.141056 C208.189465,101.264938 208.382608,101.326879 208.61248,101.326879 C208.835437,101.326879 209.02426,101.267537 209.178948,101.148852 C209.333636,101.030168 209.451164,100.865136 209.531532,100.653757 C209.611901,100.442378 209.652085,100.196347 209.652085,99.9156628 C209.652085,99.6384443 209.612333,99.395878 209.532828,99.1879641 C209.453324,98.9800501 209.33666,98.8180505 209.182837,98.7019653 C209.029013,98.58588 208.838894,98.5278373 208.61248,98.5278373 Z M97.5769764,97.5558397 L97.5354959,97.5558397 L96.751224,99.8276737 L98.3591743,99.8276737 L97.5769764,97.5558397 Z M202.267834,98.5096449 C202.050061,98.5096449 201.860374,98.5629228 201.698773,98.6694787 C201.537172,98.7760346 201.412731,98.9146439 201.325449,99.0853066 C201.259987,99.2133036 201.219074,99.349341 201.202709,99.4934189 L201.202709,99.4934189 L201.197727,99.5678644 L203.265959,99.567407 L203.258181,99.4183749 C203.242626,99.2736474 203.203738,99.1418332 203.141517,99.0229324 C203.058556,98.864398 202.942324,98.7392165 202.792822,98.6473879 C202.643319,98.5555592 202.468323,98.5096449 202.267834,98.5096449 Z M115.361141,98.5096449 C115.143368,98.5096449 114.953681,98.5629228 114.79208,98.6694787 C114.630479,98.7760346 114.506037,98.9146439 114.418755,99.0853066 C114.353294,99.2133036 114.31238,99.349341 114.296015,99.4934189 L114.296015,99.4934189 L114.290841,99.5678644 L116.359265,99.567407 L116.351488,99.4183749 C116.335932,99.2736474 116.297044,99.1418332 116.234824,99.0229324 C116.151863,98.864398 116.035631,98.7392165 115.886128,98.6473879 C115.736626,98.5555592 115.56163,98.5096449 115.361141,98.5096449 Z M138.956922,98.5096449 C138.73915,98.5096449 138.549463,98.5629228 138.387862,98.6694787 C138.226261,98.7760346 138.101819,98.9146439 138.014537,99.0853066 C137.949076,99.2133036 137.908162,99.349341 137.891797,99.4934189 L137.891797,99.4934189 L137.887193,99.5678644 L139.955047,99.567407 L139.94727,99.4183749 C139.931714,99.2736474 139.892826,99.1418332 139.830606,99.0229324 C139.747645,98.864398 139.631413,98.7392165 139.48191,98.6473879 C139.332407,98.5555592 139.157412,98.5096449 138.956922,98.5096449 Z M211.973025,96.3759282 C212.107837,96.3759282 212.223204,96.4214093 212.319128,96.5123717 C212.415052,96.603334 212.463013,96.712922 212.463013,96.8411356 C212.463013,96.9676166 212.415052,97.0763382 212.319128,97.1673006 C212.223204,97.2582629 212.107837,97.3037441 211.973025,97.3037441 C211.838213,97.3037441 211.722846,97.2582629 211.626922,97.1673006 C211.530998,97.0763382 211.483036,96.9676166 211.483036,96.8411356 C211.483036,96.712922 211.530998,96.603334 211.626922,96.5123717 C211.722846,96.4214093 211.838213,96.3759282 211.973025,96.3759282 Z M194.901716,96.3759282 C195.036528,96.3759282 195.151896,96.4214093 195.247819,96.5123717 C195.343743,96.603334 195.391705,96.712922 195.391705,96.8411356 C195.391705,96.9676166 195.343743,97.0763382 195.247819,97.1673006 C195.151896,97.2582629 195.036528,97.3037441 194.901716,97.3037441 C194.766905,97.3037441 194.651537,97.2582629 194.555613,97.1673006 C194.45969,97.0763382 194.411728,96.9676166 194.411728,96.8411356 C194.411728,96.712922 194.45969,96.603334 194.555613,96.5123717 C194.651537,96.4214093 194.766905,96.3759282 194.901716,96.3759282 Z M162.487998,96.3759282 C162.62281,96.3759282 162.738178,96.4214093 162.834101,96.5123717 C162.930025,96.603334 162.977987,96.712922 162.977987,96.8411356 C162.977987,96.9676166 162.930025,97.0763382 162.834101,97.1673006 C162.738178,97.2582629 162.62281,97.3037441 162.487998,97.3037441 C162.353187,97.3037441 162.237819,97.2582629 162.141895,97.1673006 C162.045972,97.0763382 161.99801,96.9676166 161.99801,96.8411356 C161.99801,96.712922 162.045972,96.603334 162.141895,96.5123717 C162.237819,96.4214093 162.353187,96.3759282 162.487998,96.3759282 Z M160.607267,96.3759282 C160.742079,96.3759282 160.857446,96.4214093 160.95337,96.5123717 C161.049294,96.603334 161.097255,96.712922 161.097255,96.8411356 C161.097255,96.9676166 161.049294,97.0763382 160.95337,97.1673006 C160.857446,97.2582629 160.742079,97.3037441 160.607267,97.3037441 C160.472455,97.3037441 160.357088,97.2582629 160.261164,97.1673006 C160.16524,97.0763382 160.117279,96.9676166 160.117279,96.8411356 C160.117279,96.712922 160.16524,96.603334 160.261164,96.5123717 C160.357088,96.4214093 160.472455,96.3759282 160.607267,96.3759282 Z M124.952686,96.3759282 C125.087498,96.3759282 125.202866,96.4214093 125.298789,96.5123717 C125.394713,96.603334 125.442675,96.712922 125.442675,96.8411356 C125.442675,96.9676166 125.394713,97.0763382 125.298789,97.1673006 C125.202866,97.2582629 125.087498,97.3037441 124.952686,97.3037441 C124.817875,97.3037441 124.702507,97.2582629 124.606584,97.1673006 C124.51066,97.0763382 124.462698,96.9676166 124.462698,96.8411356 C124.462698,96.712922 124.51066,96.603334 124.606584,96.5123717 C124.702507,96.4214093 124.817875,96.3759282 124.952686,96.3759282 Z M175.304267,75.404 L139.302267,90.934 L139.302267,75.404 L175.304267,75.404 Z M137.417267,75.404 L137.417267,90.933 L101.417267,75.404 L137.417267,75.404 Z M186.092926,74.4669976 L186.092926,90.933781 L182.707146,90.933781 L182.707146,84.7037347 L167.469755,84.7037347 L154.771841,90.933781 L146.103983,90.933781 L182.147719,74.4669976 L186.092926,74.4669976 Z M204.68257,74.4669976 L204.68257,77.4202153 L192.984229,77.4202153 L192.984229,81.3015995 L204.68257,81.3015995 L204.68257,90.933781 L189.93322,90.933781 L189.93322,87.9529108 L201.365555,87.9529108 L201.365555,83.8356579 L189.93322,83.8356579 L189.93322,74.4669976 L204.68257,74.4669976 Z M224.440204,74.4669976 L224.440204,77.4247883 L212.652257,77.4247883 L212.652257,81.2086126 L224.440204,81.2086126 L224.440204,84.0668207 L212.652257,84.0668207 L212.652257,88.0254321 L224.440204,88.0254321 L224.440204,90.933781 L209.108512,90.933781 L209.108512,74.4669976 L224.440204,74.4669976 Z M231.753184,74.4669976 L238.297876,84.1144473 L244.657588,74.4669976 L248.311949,74.4669976 L248.311949,90.933781 L244.657588,90.933781 L244.657588,80.863982 L240.515196,86.9771485 L236.306655,86.9771485 L231.753184,80.863982 L231.753184,90.933781 L228.283803,90.933781 L228.283803,74.4669976 L231.753184,74.4669976 Z M137.891848,73.9982858 C138.150711,73.9982858 138.36056,74.2081352 138.36056,74.4669976 C138.36056,74.72586 138.150711,74.9357094 137.891848,74.9357094 L98.299,74.9352858 L98.299,89.3092858 L100.655725,90.871911 L95,90.871911 L97.356,89.3082858 L97.3565522,73.9982858 L137.891848,73.9982858 Z M182.801463,77.7597481 L181.90802,77.7597481 L175.099383,81.4694003 L182.801463,81.4694003 L182.801463,77.7597481 Z M137.417267,58.001 L137.417267,73.529 L101.414267,73.529 L137.417267,58.001 Z M139.302267,58 L175.307267,73.529 L139.302267,73.529 L139.302267,58 Z" id="Combined-Shape"></path>
            </g>
        </g>
    </g>
</svg>